<svg xmlns="http://www.w3.org/2000/svg" width="405.0" height="112.5" viewBox="0 0 270 75"><path fill="#fff" d="M0 0h270v75H0z"/><g stroke="#000"><path d="M80 55h10" fill="none" stroke-linecap="round" stroke-linejoin="round"/><path d="M90 57v-4l5 2z" stroke-width=".5" stroke-linecap="round" stroke-linejoin="round"/><rect width="60" height="30" x="5" y="40" ry="2.5" fill="#e6e6e6" stroke-linecap="round" stroke-linejoin="round"/><text style="line-height:150%;text-align:center;text-decoration-line:none" x="35" y="52.5" color="#000" font-size="8" font-family="-apple-system,BlinkMacSystemFont,'Segoe UI',Helvetica,Arial,sans-serif" letter-spacing="0" word-spacing="0" text-anchor="middle" overflow="visible"><tspan x="35" y="52.5" font-size="10" stroke="none">Linear</tspan><tspan x="35" y="65.02" font-size="10" stroke="none">Function</tspan></text><rect width="60" height="30" x="155" y="40" ry="2.5" fill="#e6e6e6" stroke-linecap="round" stroke-linejoin="round"/><text style="line-height:150%;text-align:center;text-decoration-line:none" x="185" y="52.5" color="#000" font-size="8" font-family="-apple-system,BlinkMacSystemFont,'Segoe UI',Helvetica,Arial,sans-serif" letter-spacing="0" word-spacing="0" text-anchor="middle" overflow="visible"><tspan x="185" y="52.5" font-size="10" stroke="none">Nonlinear</tspan><tspan x="185" y="65.02" font-size="10" stroke="none">Function</tspan></text><path fill="#e6e6e6" stroke-linecap="round" stroke-linejoin="round" d="M5 5h60v20H5z"/><text style="line-height:150%;text-align:center;text-decoration-line:none" x="35" y="18.75" color="#000" font-size="8" font-family="-apple-system,BlinkMacSystemFont,'Segoe UI',Helvetica,Arial,sans-serif" letter-spacing="0" word-spacing="0" text-anchor="middle" overflow="visible"><tspan x="35" y="18.75" font-size="10" stroke="none">State X</tspan></text><path fill="#e6e6e6" stroke-linecap="round" stroke-linejoin="round" d="M155 5h60v20h-60z"/><text style="line-height:150%;text-align:center;text-decoration-line:none" x="185" y="18.75" color="#000" font-size="8" font-family="-apple-system,BlinkMacSystemFont,'Segoe UI',Helvetica,Arial,sans-serif" letter-spacing="0" word-spacing="0" text-anchor="middle" overflow="visible"><tspan x="185" y="18.75" font-size="10" stroke="none">State Y</tspan></text><path d="M215 15h25" fill="none" stroke-linecap="round" stroke-linejoin="round"/><path d="M240 17v-4l5 2z" stroke-width=".5" stroke-linecap="round" stroke-linejoin="round"/><text style="line-height:150%;text-align:start;text-decoration-line:none" x="248.75" y="18.75" color="#000" font-size="8" font-family="-apple-system,BlinkMacSystemFont,'Segoe UI',Helvetica,Arial,sans-serif" letter-spacing="0" word-spacing="0" overflow="visible"><tspan x="248.75" y="18.75" style="text-align:start" font-size="10" stroke="none">Out</tspan></text><path d="M65 15h15v40H70" fill="none" stroke-linecap="round" stroke-linejoin="round"/><path d="M70 57v-4l-5 2z" stroke-width=".5" stroke-linecap="round" stroke-linejoin="round"/><path d="M230 15v40h-10" fill="none" stroke-linecap="round" stroke-linejoin="round"/><path d="M220 57v-4l-5 2z" stroke-width=".5" stroke-linecap="round" stroke-linejoin="round"/><path d="M140 55h10" fill="none" stroke-linecap="round" stroke-linejoin="round"/><path d="M150 57v-4l5 2z" stroke-width=".5" stroke-linecap="round" stroke-linejoin="round"/><rect width="45" height="30" x="95" y="40" ry="2.5" fill="#e6e6e6" stroke-linecap="round" stroke-linejoin="round"/><text style="line-height:150%;text-align:center;text-decoration-line:none" x="117.5" y="52.5" color="#000" font-size="8" font-family="-apple-system,BlinkMacSystemFont,'Segoe UI',Helvetica,Arial,sans-serif" letter-spacing="0" word-spacing="0" text-anchor="middle" overflow="visible"><tspan x="117.5" y="52.5" font-size="10" stroke="none">XOR +</tspan><tspan x="117.5" y="65.02" font-size="10" stroke="none">Shuffle</tspan></text><text style="line-height:150%;text-align:center;text-decoration-line:none" x="117.5" y="18.75" color="#000" font-size="8" font-family="-apple-system,BlinkMacSystemFont,'Segoe UI',Helvetica,Arial,sans-serif" letter-spacing="0" word-spacing="0" text-anchor="middle" overflow="visible"><tspan x="117.5" y="18.75" font-size="10" stroke="none">Salt[0]</tspan></text><path d="M35 40V30" fill="none" stroke-linecap="round" stroke-linejoin="round"/><path d="M33 30h4l-2-5z" stroke-width=".5" stroke-linecap="round" stroke-linejoin="round"/><path d="M185 40V30" fill="none" stroke-linecap="round" stroke-linejoin="round"/><path d="M183 30h4l-2-5z" stroke-width=".5" stroke-linecap="round" stroke-linejoin="round"/><path d="M117.5 22.5V35" fill="none" stroke-linecap="round" stroke-linejoin="round"/><path d="M115.5 35h4l-2 5z" stroke-width=".5" stroke-linecap="round" stroke-linejoin="round"/></g></svg>
