<svg width="780" height="250" viewBox="0 0 390 125" xmlns="http://www.w3.org/2000/svg"><path fill="#fff" d="M0 0h390v125H0z"/><g stroke="#000"><text style="line-height:150%;text-align:start;text-decoration-line:none" x="368.75" y="116.25" color="#000" font-size="8" font-family="-apple-system,BlinkMacSystemFont,'Segoe UI',Helvetica,Arial,sans-serif" letter-spacing="0" word-spacing="0" overflow="visible"><tspan x="368.75" y="116.25" style="text-align:start" font-size="10" stroke="none">Out</tspan></text><path d="M215 72.5H85v40m130 0h-15m160 0h-10" fill="none" stroke-linecap="round" stroke-linejoin="round"/><path d="M215 70v15h7.5c4 0 7.5-3.5 7.5-7.5s-3.5-7.5-7.5-7.5z" fill="#f2f2f2" stroke-linecap="round" stroke-linejoin="round"/><g stroke-linecap="round" stroke-linejoin="round"><path d="M213 50c3 4.5 3 10.5 0 15" fill="none"/><path d="M215.5 50c3 4.5 3 10.5 0 15h4.5c2 0 6.667-.833 10-7.5-3.333-6.667-8-7.5-10-7.5z" fill="#f2f2f2"/></g><path d="M170 112.5v-50h44" fill="none" stroke-linecap="round" stroke-linejoin="round"/><path d="M120 112.5v-60h94" fill="none" stroke-linecap="round" stroke-linejoin="round"/><path d="M15 112.5H5v-75h254M245 15v12.5h14" fill="none" stroke-linecap="round" stroke-linejoin="round"/><g stroke-linecap="round" stroke-linejoin="round"><path d="M258 25c3 4.5 3 10.5 0 15" fill="none"/><path d="M260.5 25c3 4.5 3 10.5 0 15h4.5c2 0 6.667-.833 10-7.5-3.333-6.667-8-7.5-10-7.5z" fill="#f2f2f2"/></g><path d="M275 67.5h10l5-12.5h14m-29-22.5h10l5 12.5h14" fill="none" stroke-linecap="round" stroke-linejoin="round"/><g stroke-linecap="round" stroke-linejoin="round"><path d="M303 42.5c3 4.5 3 10.5 0 15" fill="none"/><path d="M305.5 42.5c3 4.5 3 10.5 0 15h4.5c2 0 6.667-.833 10-7.5-3.333-6.667-8-7.5-10-7.5z" fill="#f2f2f2"/></g><path d="M320 50h30v62.5h-10m-110-35h10l5-5h14m-29-15h10l5 5h14" fill="none" stroke-linecap="round" stroke-linejoin="round"/><g stroke-linecap="round" stroke-linejoin="round"><path d="M258 60c3 4.5 3 10.5 0 15" fill="none"/><path d="M260.5 60c3 4.5 3 10.5 0 15h4.5c2 0 6.667-.833 10-7.5-3.333-6.667-8-7.5-10-7.5z" fill="#f2f2f2"/></g><path d="M200 102.5h10l-5-10z" fill="#f2f2f2" stroke-linecap="round" stroke-linejoin="round"/><path d="M205 89.5v-7h10" fill="none" stroke-linecap="round" stroke-linejoin="round"/><circle r="1.5" cy="-205" cx="-91" transform="matrix(0 -1 -1 0 0 0)" fill="#f2f2f2" stroke-linecap="round" stroke-linejoin="round"/><path d="M340 114.5v-4l-5 2z" stroke-width=".5" stroke-linecap="round" stroke-linejoin="round"/><path fill="#e6e6e6" stroke-linecap="round" stroke-linejoin="round" d="M320 105h15v15h-15z"/><text style="line-height:150%;text-align:center;text-decoration-line:none" x="327.5" y="116.25" color="#000" font-size="8" font-family="-apple-system,BlinkMacSystemFont,'Segoe UI',Helvetica,Arial,sans-serif" letter-spacing="0" word-spacing="0" text-anchor="middle" overflow="visible"><tspan x="327.5" y="116.25" font-size="10" stroke="none">D</tspan></text><path fill="#e6e6e6" stroke-linecap="round" stroke-linejoin="round" d="M305 105h15v15h-15z"/><text style="line-height:150%;text-align:center;text-decoration-line:none" x="312.5" y="116.25" color="#000" font-size="8" font-family="-apple-system,BlinkMacSystemFont,'Segoe UI',Helvetica,Arial,sans-serif" letter-spacing="0" word-spacing="0" text-anchor="middle" overflow="visible"><tspan x="312.5" y="116.25" font-size="10" stroke="none">D</tspan></text><path fill="#e6e6e6" stroke-linecap="round" stroke-linejoin="round" d="M290 105h15v15h-15z"/><text style="line-height:150%;text-align:center;text-decoration-line:none" x="297.5" y="116.25" color="#000" font-size="8" font-family="-apple-system,BlinkMacSystemFont,'Segoe UI',Helvetica,Arial,sans-serif" letter-spacing="0" word-spacing="0" text-anchor="middle" overflow="visible"><tspan x="297.5" y="116.25" font-size="10" stroke="none">D</tspan></text><path fill="#e6e6e6" stroke-linecap="round" stroke-linejoin="round" d="M275 105h15v15h-15z"/><text style="line-height:150%;text-align:center;text-decoration-line:none" x="282.5" y="116.25" color="#000" font-size="8" font-family="-apple-system,BlinkMacSystemFont,'Segoe UI',Helvetica,Arial,sans-serif" letter-spacing="0" word-spacing="0" text-anchor="middle" overflow="visible"><tspan x="282.5" y="116.25" font-size="10" stroke="none">D</tspan></text><path fill="#e6e6e6" stroke-linecap="round" stroke-linejoin="round" d="M260 105h15v15h-15z"/><text style="line-height:150%;text-align:center;text-decoration-line:none" x="267.5" y="116.25" color="#000" font-size="8" font-family="-apple-system,BlinkMacSystemFont,'Segoe UI',Helvetica,Arial,sans-serif" letter-spacing="0" word-spacing="0" text-anchor="middle" overflow="visible"><tspan x="267.5" y="116.25" font-size="10" stroke="none">D</tspan></text><path fill="#e6e6e6" stroke-linecap="round" stroke-linejoin="round" d="M245 105h15v15h-15z"/><text style="line-height:150%;text-align:center;text-decoration-line:none" x="252.5" y="116.25" color="#000" font-size="8" font-family="-apple-system,BlinkMacSystemFont,'Segoe UI',Helvetica,Arial,sans-serif" letter-spacing="0" word-spacing="0" text-anchor="middle" overflow="visible"><tspan x="252.5" y="116.25" font-size="10" stroke="none">D</tspan></text><path fill="#e6e6e6" stroke-linecap="round" stroke-linejoin="round" d="M230 105h15v15h-15z"/><text style="line-height:150%;text-align:center;text-decoration-line:none" x="237.5" y="116.25" color="#000" font-size="8" font-family="-apple-system,BlinkMacSystemFont,'Segoe UI',Helvetica,Arial,sans-serif" letter-spacing="0" word-spacing="0" text-anchor="middle" overflow="visible"><tspan x="237.5" y="116.25" font-size="10" stroke="none">D</tspan></text><path fill="#e6e6e6" stroke-linecap="round" stroke-linejoin="round" d="M215 105h15v15h-15z"/><text style="line-height:150%;text-align:center;text-decoration-line:none" x="222.5" y="116.25" color="#000" font-size="8" font-family="-apple-system,BlinkMacSystemFont,'Segoe UI',Helvetica,Arial,sans-serif" letter-spacing="0" word-spacing="0" text-anchor="middle" overflow="visible"><tspan x="222.5" y="116.25" font-size="10" stroke="none">D</tspan></text><path fill="#e6e6e6" stroke-linecap="round" stroke-linejoin="round" d="M180 105h15v15h-15z"/><text style="line-height:150%;text-align:center;text-decoration-line:none" x="187.5" y="116.25" color="#000" font-size="8" font-family="-apple-system,BlinkMacSystemFont,'Segoe UI',Helvetica,Arial,sans-serif" letter-spacing="0" word-spacing="0" text-anchor="middle" overflow="visible"><tspan x="187.5" y="116.25" font-size="10" stroke="none">D</tspan></text><path fill="#e6e6e6" stroke-linecap="round" stroke-linejoin="round" d="M145 105h15v15h-15z"/><text style="line-height:150%;text-align:center;text-decoration-line:none" x="152.5" y="116.25" color="#000" font-size="8" font-family="-apple-system,BlinkMacSystemFont,'Segoe UI',Helvetica,Arial,sans-serif" letter-spacing="0" word-spacing="0" text-anchor="middle" overflow="visible"><tspan x="152.5" y="116.25" font-size="10" stroke="none">D</tspan></text><path fill="#e6e6e6" stroke-linecap="round" stroke-linejoin="round" d="M130 105h15v15h-15z"/><text style="line-height:150%;text-align:center;text-decoration-line:none" x="137.5" y="116.25" color="#000" font-size="8" font-family="-apple-system,BlinkMacSystemFont,'Segoe UI',Helvetica,Arial,sans-serif" letter-spacing="0" word-spacing="0" text-anchor="middle" overflow="visible"><tspan x="137.5" y="116.25" font-size="10" stroke="none">D</tspan></text><path fill="#e6e6e6" stroke-linecap="round" stroke-linejoin="round" d="M95 105h15v15H95z"/><text style="line-height:150%;text-align:center;text-decoration-line:none" x="102.5" y="116.25" color="#000" font-size="8" font-family="-apple-system,BlinkMacSystemFont,'Segoe UI',Helvetica,Arial,sans-serif" letter-spacing="0" word-spacing="0" text-anchor="middle" overflow="visible"><tspan x="102.5" y="116.25" font-size="10" stroke="none">D</tspan></text><path fill="#e6e6e6" stroke-linecap="round" stroke-linejoin="round" d="M60 105h15v15H60z"/><text style="line-height:150%;text-align:center;text-decoration-line:none" x="67.5" y="116.25" color="#000" font-size="8" font-family="-apple-system,BlinkMacSystemFont,'Segoe UI',Helvetica,Arial,sans-serif" letter-spacing="0" word-spacing="0" text-anchor="middle" overflow="visible"><tspan x="67.5" y="116.25" font-size="10" stroke="none">D</tspan></text><path fill="#e6e6e6" stroke-linecap="round" stroke-linejoin="round" d="M45 105h15v15H45z"/><text style="line-height:150%;text-align:center;text-decoration-line:none" x="52.5" y="116.25" color="#000" font-size="8" font-family="-apple-system,BlinkMacSystemFont,'Segoe UI',Helvetica,Arial,sans-serif" letter-spacing="0" word-spacing="0" text-anchor="middle" overflow="visible"><tspan x="52.5" y="116.25" font-size="10" stroke="none">D</tspan></text><path fill="#e6e6e6" stroke-linecap="round" stroke-linejoin="round" d="M30 105h15v15H30z"/><text style="line-height:150%;text-align:center;text-decoration-line:none" x="37.5" y="116.25" color="#000" font-size="8" font-family="-apple-system,BlinkMacSystemFont,'Segoe UI',Helvetica,Arial,sans-serif" letter-spacing="0" word-spacing="0" text-anchor="middle" overflow="visible"><tspan x="37.5" y="116.25" font-size="10" stroke="none">D</tspan></text><path fill="#e6e6e6" stroke-linecap="round" stroke-linejoin="round" d="M15 105h15v15H15z"/><text style="line-height:150%;text-align:center;text-decoration-line:none" x="22.5" y="116.25" color="#000" font-size="8" font-family="-apple-system,BlinkMacSystemFont,'Segoe UI',Helvetica,Arial,sans-serif" letter-spacing="0" word-spacing="0" text-anchor="middle" overflow="visible"><tspan x="22.5" y="116.25" font-size="10" stroke="none">D</tspan></text><path d="M200 114.5v-4l-5 2z" stroke-width=".5" stroke-linecap="round" stroke-linejoin="round"/><path d="M180 112.5h-15" fill="none" stroke-linecap="round" stroke-linejoin="round"/><path d="M165 114.5v-4l-5 2z" stroke-width=".5" stroke-linecap="round" stroke-linejoin="round"/><path d="M130 112.5h-15" fill="none" stroke-linecap="round" stroke-linejoin="round"/><path d="M115 114.5v-4l-5 2z" stroke-width=".5" stroke-linecap="round" stroke-linejoin="round"/><path d="M95 112.5H80" fill="none" stroke-linecap="round" stroke-linejoin="round"/><path d="M80 114.5v-4l-5 2z" stroke-width=".5" stroke-linecap="round" stroke-linejoin="round"/><path d="M205 112.5v-10" fill="none" stroke-linecap="round" stroke-linejoin="round"/><text style="line-height:150%;text-align:center;text-decoration-line:none" x="245" y="11.25" color="#000" font-size="8" font-family="-apple-system,BlinkMacSystemFont,'Segoe UI',Helvetica,Arial,sans-serif" letter-spacing="0" word-spacing="0" text-anchor="middle" overflow="visible"><tspan x="245" y="11.25" font-size="10" stroke="none">Mixin</tspan></text><path d="M360 114.5v-4l5 2z" stroke-width=".5" stroke-linecap="round" stroke-linejoin="round"/></g></svg>
