<svg width="830" height="770" viewBox="0 0 415 385" xmlns="http://www.w3.org/2000/svg"><g stroke="#000"><text style="line-height:150%;text-align:start;text-decoration-line:none" x="378.75" y="116.25" color="#000" font-size="8" font-family="-apple-system,BlinkMacSystemFont,'Segoe UI',Helvetica,Arial,sans-serif" letter-spacing="0" word-spacing="0" overflow="visible"><tspan x="378.75" y="116.25" style="text-align:start" font-size="10" stroke="none">Out[0]</tspan></text><path d="M215 72.5H85v40m130 0h-15m170 0h-20" fill="none" stroke-linecap="round" stroke-linejoin="round"/><path d="M215 70v15h7.5c4 0 7.5-3.5 7.5-7.5s-3.5-7.5-7.5-7.5z" fill="#f2f2f2" stroke-linecap="round" stroke-linejoin="round"/><g stroke-linecap="round" stroke-linejoin="round"><path d="M213 50c3 4.5 3 10.5 0 15" fill="none"/><path d="M215.5 50c3 4.5 3 10.5 0 15h4.5c2 0 6.667-.833 10-7.5-3.333-6.667-8-7.5-10-7.5z" fill="#f2f2f2"/></g><path d="M170 112.5v-50h44" fill="none" stroke-linecap="round" stroke-linejoin="round"/><path d="M120 112.5v-60h94" fill="none" stroke-linecap="round" stroke-linejoin="round"/><path d="M15 112.5H5v-75h254M245 15v12.5h14" fill="none" stroke-linecap="round" stroke-linejoin="round"/><g stroke-linecap="round" stroke-linejoin="round"><path d="M258 25c3 4.5 3 10.5 0 15" fill="none"/><path d="M260.5 25c3 4.5 3 10.5 0 15h4.5c2 0 6.667-.833 10-7.5-3.333-6.667-8-7.5-10-7.5z" fill="#f2f2f2"/></g><path d="M275 67.5h10l5-12.5h14m-29-22.5h10l5 12.5h14" fill="none" stroke-linecap="round" stroke-linejoin="round"/><g stroke-linecap="round" stroke-linejoin="round"><path d="M303 42.5c3 4.5 3 10.5 0 15" fill="none"/><path d="M305.5 42.5c3 4.5 3 10.5 0 15h4.5c2 0 6.667-.833 10-7.5-3.333-6.667-8-7.5-10-7.5z" fill="#f2f2f2"/></g><path d="M320 50h40v322.5h-20m-110-295h10l5-5h14m-29-15h10l5 5h14" fill="none" stroke-linecap="round" stroke-linejoin="round"/><g stroke-linecap="round" stroke-linejoin="round"><path d="M258 60c3 4.5 3 10.5 0 15" fill="none"/><path d="M260.5 60c3 4.5 3 10.5 0 15h4.5c2 0 6.667-.833 10-7.5-3.333-6.667-8-7.5-10-7.5z" fill="#f2f2f2"/></g><path d="M200 102.5h10l-5-10z" fill="#f2f2f2" stroke-linecap="round" stroke-linejoin="round"/><path d="M205 89.5v-7h10" fill="none" stroke-linecap="round" stroke-linejoin="round"/><circle r="1.5" cy="-205" cx="-91" transform="matrix(0 -1 -1 0 0 0)" fill="#f2f2f2" stroke-linecap="round" stroke-linejoin="round"/><path d="M340 114.5v-4l-5 2z" stroke-width=".5" stroke-linecap="round" stroke-linejoin="round"/><path fill="#e6e6e6" stroke-linecap="round" stroke-linejoin="round" d="M320 105h15v15h-15z"/><text style="line-height:150%;text-align:center;text-decoration-line:none" x="327.5" y="116.25" color="#000" font-size="8" font-family="-apple-system,BlinkMacSystemFont,'Segoe UI',Helvetica,Arial,sans-serif" letter-spacing="0" word-spacing="0" text-anchor="middle" overflow="visible"><tspan x="327.5" y="116.25" font-size="10" stroke="none">D</tspan></text><path fill="#e6e6e6" stroke-linecap="round" stroke-linejoin="round" d="M305 105h15v15h-15z"/><text style="line-height:150%;text-align:center;text-decoration-line:none" x="312.5" y="116.25" color="#000" font-size="8" font-family="-apple-system,BlinkMacSystemFont,'Segoe UI',Helvetica,Arial,sans-serif" letter-spacing="0" word-spacing="0" text-anchor="middle" overflow="visible"><tspan x="312.5" y="116.25" font-size="10" stroke="none">D</tspan></text><path fill="#e6e6e6" stroke-linecap="round" stroke-linejoin="round" d="M290 105h15v15h-15z"/><text style="line-height:150%;text-align:center;text-decoration-line:none" x="297.5" y="116.25" color="#000" font-size="8" font-family="-apple-system,BlinkMacSystemFont,'Segoe UI',Helvetica,Arial,sans-serif" letter-spacing="0" word-spacing="0" text-anchor="middle" overflow="visible"><tspan x="297.5" y="116.25" font-size="10" stroke="none">D</tspan></text><path fill="#e6e6e6" stroke-linecap="round" stroke-linejoin="round" d="M275 105h15v15h-15z"/><text style="line-height:150%;text-align:center;text-decoration-line:none" x="282.5" y="116.25" color="#000" font-size="8" font-family="-apple-system,BlinkMacSystemFont,'Segoe UI',Helvetica,Arial,sans-serif" letter-spacing="0" word-spacing="0" text-anchor="middle" overflow="visible"><tspan x="282.5" y="116.25" font-size="10" stroke="none">D</tspan></text><path fill="#e6e6e6" stroke-linecap="round" stroke-linejoin="round" d="M260 105h15v15h-15z"/><text style="line-height:150%;text-align:center;text-decoration-line:none" x="267.5" y="116.25" color="#000" font-size="8" font-family="-apple-system,BlinkMacSystemFont,'Segoe UI',Helvetica,Arial,sans-serif" letter-spacing="0" word-spacing="0" text-anchor="middle" overflow="visible"><tspan x="267.5" y="116.25" font-size="10" stroke="none">D</tspan></text><path fill="#e6e6e6" stroke-linecap="round" stroke-linejoin="round" d="M245 105h15v15h-15z"/><text style="line-height:150%;text-align:center;text-decoration-line:none" x="252.5" y="116.25" color="#000" font-size="8" font-family="-apple-system,BlinkMacSystemFont,'Segoe UI',Helvetica,Arial,sans-serif" letter-spacing="0" word-spacing="0" text-anchor="middle" overflow="visible"><tspan x="252.5" y="116.25" font-size="10" stroke="none">D</tspan></text><path fill="#e6e6e6" stroke-linecap="round" stroke-linejoin="round" d="M230 105h15v15h-15z"/><text style="line-height:150%;text-align:center;text-decoration-line:none" x="237.5" y="116.25" color="#000" font-size="8" font-family="-apple-system,BlinkMacSystemFont,'Segoe UI',Helvetica,Arial,sans-serif" letter-spacing="0" word-spacing="0" text-anchor="middle" overflow="visible"><tspan x="237.5" y="116.25" font-size="10" stroke="none">D</tspan></text><path fill="#e6e6e6" stroke-linecap="round" stroke-linejoin="round" d="M215 105h15v15h-15z"/><text style="line-height:150%;text-align:center;text-decoration-line:none" x="222.5" y="116.25" color="#000" font-size="8" font-family="-apple-system,BlinkMacSystemFont,'Segoe UI',Helvetica,Arial,sans-serif" letter-spacing="0" word-spacing="0" text-anchor="middle" overflow="visible"><tspan x="222.5" y="116.25" font-size="10" stroke="none">D</tspan></text><path fill="#e6e6e6" stroke-linecap="round" stroke-linejoin="round" d="M180 105h15v15h-15z"/><text style="line-height:150%;text-align:center;text-decoration-line:none" x="187.5" y="116.25" color="#000" font-size="8" font-family="-apple-system,BlinkMacSystemFont,'Segoe UI',Helvetica,Arial,sans-serif" letter-spacing="0" word-spacing="0" text-anchor="middle" overflow="visible"><tspan x="187.5" y="116.25" font-size="10" stroke="none">D</tspan></text><path fill="#e6e6e6" stroke-linecap="round" stroke-linejoin="round" d="M145 105h15v15h-15z"/><text style="line-height:150%;text-align:center;text-decoration-line:none" x="152.5" y="116.25" color="#000" font-size="8" font-family="-apple-system,BlinkMacSystemFont,'Segoe UI',Helvetica,Arial,sans-serif" letter-spacing="0" word-spacing="0" text-anchor="middle" overflow="visible"><tspan x="152.5" y="116.25" font-size="10" stroke="none">D</tspan></text><path fill="#e6e6e6" stroke-linecap="round" stroke-linejoin="round" d="M130 105h15v15h-15z"/><text style="line-height:150%;text-align:center;text-decoration-line:none" x="137.5" y="116.25" color="#000" font-size="8" font-family="-apple-system,BlinkMacSystemFont,'Segoe UI',Helvetica,Arial,sans-serif" letter-spacing="0" word-spacing="0" text-anchor="middle" overflow="visible"><tspan x="137.5" y="116.25" font-size="10" stroke="none">D</tspan></text><path fill="#e6e6e6" stroke-linecap="round" stroke-linejoin="round" d="M95 105h15v15H95z"/><text style="line-height:150%;text-align:center;text-decoration-line:none" x="102.5" y="116.25" color="#000" font-size="8" font-family="-apple-system,BlinkMacSystemFont,'Segoe UI',Helvetica,Arial,sans-serif" letter-spacing="0" word-spacing="0" text-anchor="middle" overflow="visible"><tspan x="102.5" y="116.25" font-size="10" stroke="none">D</tspan></text><path fill="#e6e6e6" stroke-linecap="round" stroke-linejoin="round" d="M60 105h15v15H60z"/><text style="line-height:150%;text-align:center;text-decoration-line:none" x="67.5" y="116.25" color="#000" font-size="8" font-family="-apple-system,BlinkMacSystemFont,'Segoe UI',Helvetica,Arial,sans-serif" letter-spacing="0" word-spacing="0" text-anchor="middle" overflow="visible"><tspan x="67.5" y="116.25" font-size="10" stroke="none">D</tspan></text><path fill="#e6e6e6" stroke-linecap="round" stroke-linejoin="round" d="M45 105h15v15H45z"/><text style="line-height:150%;text-align:center;text-decoration-line:none" x="52.5" y="116.25" color="#000" font-size="8" font-family="-apple-system,BlinkMacSystemFont,'Segoe UI',Helvetica,Arial,sans-serif" letter-spacing="0" word-spacing="0" text-anchor="middle" overflow="visible"><tspan x="52.5" y="116.25" font-size="10" stroke="none">D</tspan></text><path fill="#e6e6e6" stroke-linecap="round" stroke-linejoin="round" d="M30 105h15v15H30z"/><text style="line-height:150%;text-align:center;text-decoration-line:none" x="37.5" y="116.25" color="#000" font-size="8" font-family="-apple-system,BlinkMacSystemFont,'Segoe UI',Helvetica,Arial,sans-serif" letter-spacing="0" word-spacing="0" text-anchor="middle" overflow="visible"><tspan x="37.5" y="116.25" font-size="10" stroke="none">D</tspan></text><path fill="#e6e6e6" stroke-linecap="round" stroke-linejoin="round" d="M15 105h15v15H15z"/><text style="line-height:150%;text-align:center;text-decoration-line:none" x="22.5" y="116.25" color="#000" font-size="8" font-family="-apple-system,BlinkMacSystemFont,'Segoe UI',Helvetica,Arial,sans-serif" letter-spacing="0" word-spacing="0" text-anchor="middle" overflow="visible"><tspan x="22.5" y="116.25" font-size="10" stroke="none">D</tspan></text><path d="M200 114.5v-4l-5 2z" stroke-width=".5" stroke-linecap="round" stroke-linejoin="round"/><path d="M180 112.5h-15" fill="none" stroke-linecap="round" stroke-linejoin="round"/><path d="M165 114.5v-4l-5 2z" stroke-width=".5" stroke-linecap="round" stroke-linejoin="round"/><path d="M130 112.5h-15" fill="none" stroke-linecap="round" stroke-linejoin="round"/><path d="M115 114.5v-4l-5 2z" stroke-width=".5" stroke-linecap="round" stroke-linejoin="round"/><path d="M95 112.5H80" fill="none" stroke-linecap="round" stroke-linejoin="round"/><path d="M80 114.5v-4l-5 2z" stroke-width=".5" stroke-linecap="round" stroke-linejoin="round"/><path d="M205 112.5v-10" fill="none" stroke-linecap="round" stroke-linejoin="round"/><text style="line-height:150%;text-align:center;text-decoration-line:none" x="245" y="11.25" color="#000" font-size="8" font-family="-apple-system,BlinkMacSystemFont,'Segoe UI',Helvetica,Arial,sans-serif" letter-spacing="0" word-spacing="0" text-anchor="middle" overflow="visible"><tspan x="245" y="11.25" font-size="10" stroke="none">Mixin[2]</tspan></text><path d="M370 114.5v-4l5 2z" stroke-width=".5" stroke-linecap="round" stroke-linejoin="round"/><text style="line-height:150%;text-align:start;text-decoration-line:none" x="378.75" y="246.25" color="#000" font-size="8" font-family="-apple-system,BlinkMacSystemFont,'Segoe UI',Helvetica,Arial,sans-serif" letter-spacing="0" word-spacing="0" overflow="visible"><tspan x="378.75" y="246.25" style="text-align:start" font-size="10" stroke="none">Out[1]</tspan></text><path d="M215 202.5H85v40m130 0h-15m170 0h-20" fill="none" stroke-linecap="round" stroke-linejoin="round"/><path d="M215 200v15h7.5c4 0 7.5-3.5 7.5-7.5s-3.5-7.5-7.5-7.5z" fill="#f2f2f2" stroke-linecap="round" stroke-linejoin="round"/><g stroke-linecap="round" stroke-linejoin="round"><path d="M213 180c3 4.5 3 10.5 0 15" fill="none"/><path d="M215.5 180c3 4.5 3 10.5 0 15h4.5c2 0 6.667-.833 10-7.5-3.333-6.667-8-7.5-10-7.5z" fill="#f2f2f2"/></g><path d="M170 242.5v-50h44" fill="none" stroke-linecap="round" stroke-linejoin="round"/><path d="M120 242.5v-60h94" fill="none" stroke-linecap="round" stroke-linejoin="round"/><path d="M15 242.5H5v-75h254M245 145v12.5h14" fill="none" stroke-linecap="round" stroke-linejoin="round"/><g stroke-linecap="round" stroke-linejoin="round"><path d="M258 155c3 4.5 3 10.5 0 15" fill="none"/><path d="M260.5 155c3 4.5 3 10.5 0 15h4.5c2 0 6.667-.833 10-7.5-3.333-6.667-8-7.5-10-7.5z" fill="#f2f2f2"/></g><path d="M275 197.5h10l5-12.5h14m-29-22.5h10l5 12.5h14" fill="none" stroke-linecap="round" stroke-linejoin="round"/><g stroke-linecap="round" stroke-linejoin="round"><path d="M303 172.5c3 4.5 3 10.5 0 15" fill="none"/><path d="M305.5 172.5c3 4.5 3 10.5 0 15h4.5c2 0 6.667-.833 10-7.5-3.333-6.667-8-7.5-10-7.5z" fill="#f2f2f2"/></g><path d="M320 180h30v-67.5h-10m-110 95h10l5-5h14m-29-15h10l5 5h14" fill="none" stroke-linecap="round" stroke-linejoin="round"/><g stroke-linecap="round" stroke-linejoin="round"><path d="M258 190c3 4.5 3 10.5 0 15" fill="none"/><path d="M260.5 190c3 4.5 3 10.5 0 15h4.5c2 0 6.667-.833 10-7.5-3.333-6.667-8-7.5-10-7.5z" fill="#f2f2f2"/></g><path d="M200 232.5h10l-5-10z" fill="#f2f2f2" stroke-linecap="round" stroke-linejoin="round"/><path d="M205 219.5v-7h10" fill="none" stroke-linecap="round" stroke-linejoin="round"/><circle r="1.5" cy="-205" cx="-221" transform="matrix(0 -1 -1 0 0 0)" fill="#f2f2f2" stroke-linecap="round" stroke-linejoin="round"/><path d="M340 244.5v-4l-5 2z" stroke-width=".5" stroke-linecap="round" stroke-linejoin="round"/><path fill="#e6e6e6" stroke-linecap="round" stroke-linejoin="round" d="M320 235h15v15h-15z"/><text style="line-height:150%;text-align:center;text-decoration-line:none" x="327.5" y="246.25" color="#000" font-size="8" font-family="-apple-system,BlinkMacSystemFont,'Segoe UI',Helvetica,Arial,sans-serif" letter-spacing="0" word-spacing="0" text-anchor="middle" overflow="visible"><tspan x="327.5" y="246.25" font-size="10" stroke="none">D</tspan></text><path fill="#e6e6e6" stroke-linecap="round" stroke-linejoin="round" d="M305 235h15v15h-15z"/><text style="line-height:150%;text-align:center;text-decoration-line:none" x="312.5" y="246.25" color="#000" font-size="8" font-family="-apple-system,BlinkMacSystemFont,'Segoe UI',Helvetica,Arial,sans-serif" letter-spacing="0" word-spacing="0" text-anchor="middle" overflow="visible"><tspan x="312.5" y="246.25" font-size="10" stroke="none">D</tspan></text><path fill="#e6e6e6" stroke-linecap="round" stroke-linejoin="round" d="M290 235h15v15h-15z"/><text style="line-height:150%;text-align:center;text-decoration-line:none" x="297.5" y="246.25" color="#000" font-size="8" font-family="-apple-system,BlinkMacSystemFont,'Segoe UI',Helvetica,Arial,sans-serif" letter-spacing="0" word-spacing="0" text-anchor="middle" overflow="visible"><tspan x="297.5" y="246.25" font-size="10" stroke="none">D</tspan></text><path fill="#e6e6e6" stroke-linecap="round" stroke-linejoin="round" d="M275 235h15v15h-15z"/><text style="line-height:150%;text-align:center;text-decoration-line:none" x="282.5" y="246.25" color="#000" font-size="8" font-family="-apple-system,BlinkMacSystemFont,'Segoe UI',Helvetica,Arial,sans-serif" letter-spacing="0" word-spacing="0" text-anchor="middle" overflow="visible"><tspan x="282.5" y="246.25" font-size="10" stroke="none">D</tspan></text><path fill="#e6e6e6" stroke-linecap="round" stroke-linejoin="round" d="M260 235h15v15h-15z"/><text style="line-height:150%;text-align:center;text-decoration-line:none" x="267.5" y="246.25" color="#000" font-size="8" font-family="-apple-system,BlinkMacSystemFont,'Segoe UI',Helvetica,Arial,sans-serif" letter-spacing="0" word-spacing="0" text-anchor="middle" overflow="visible"><tspan x="267.5" y="246.25" font-size="10" stroke="none">D</tspan></text><path fill="#e6e6e6" stroke-linecap="round" stroke-linejoin="round" d="M245 235h15v15h-15z"/><text style="line-height:150%;text-align:center;text-decoration-line:none" x="252.5" y="246.25" color="#000" font-size="8" font-family="-apple-system,BlinkMacSystemFont,'Segoe UI',Helvetica,Arial,sans-serif" letter-spacing="0" word-spacing="0" text-anchor="middle" overflow="visible"><tspan x="252.5" y="246.25" font-size="10" stroke="none">D</tspan></text><path fill="#e6e6e6" stroke-linecap="round" stroke-linejoin="round" d="M230 235h15v15h-15z"/><text style="line-height:150%;text-align:center;text-decoration-line:none" x="237.5" y="246.25" color="#000" font-size="8" font-family="-apple-system,BlinkMacSystemFont,'Segoe UI',Helvetica,Arial,sans-serif" letter-spacing="0" word-spacing="0" text-anchor="middle" overflow="visible"><tspan x="237.5" y="246.25" font-size="10" stroke="none">D</tspan></text><path fill="#e6e6e6" stroke-linecap="round" stroke-linejoin="round" d="M215 235h15v15h-15z"/><text style="line-height:150%;text-align:center;text-decoration-line:none" x="222.5" y="246.25" color="#000" font-size="8" font-family="-apple-system,BlinkMacSystemFont,'Segoe UI',Helvetica,Arial,sans-serif" letter-spacing="0" word-spacing="0" text-anchor="middle" overflow="visible"><tspan x="222.5" y="246.25" font-size="10" stroke="none">D</tspan></text><path fill="#e6e6e6" stroke-linecap="round" stroke-linejoin="round" d="M180 235h15v15h-15z"/><text style="line-height:150%;text-align:center;text-decoration-line:none" x="187.5" y="246.25" color="#000" font-size="8" font-family="-apple-system,BlinkMacSystemFont,'Segoe UI',Helvetica,Arial,sans-serif" letter-spacing="0" word-spacing="0" text-anchor="middle" overflow="visible"><tspan x="187.5" y="246.25" font-size="10" stroke="none">D</tspan></text><path fill="#e6e6e6" stroke-linecap="round" stroke-linejoin="round" d="M145 235h15v15h-15z"/><text style="line-height:150%;text-align:center;text-decoration-line:none" x="152.5" y="246.25" color="#000" font-size="8" font-family="-apple-system,BlinkMacSystemFont,'Segoe UI',Helvetica,Arial,sans-serif" letter-spacing="0" word-spacing="0" text-anchor="middle" overflow="visible"><tspan x="152.5" y="246.25" font-size="10" stroke="none">D</tspan></text><path fill="#e6e6e6" stroke-linecap="round" stroke-linejoin="round" d="M130 235h15v15h-15z"/><text style="line-height:150%;text-align:center;text-decoration-line:none" x="137.5" y="246.25" color="#000" font-size="8" font-family="-apple-system,BlinkMacSystemFont,'Segoe UI',Helvetica,Arial,sans-serif" letter-spacing="0" word-spacing="0" text-anchor="middle" overflow="visible"><tspan x="137.5" y="246.25" font-size="10" stroke="none">D</tspan></text><path fill="#e6e6e6" stroke-linecap="round" stroke-linejoin="round" d="M95 235h15v15H95z"/><text style="line-height:150%;text-align:center;text-decoration-line:none" x="102.5" y="246.25" color="#000" font-size="8" font-family="-apple-system,BlinkMacSystemFont,'Segoe UI',Helvetica,Arial,sans-serif" letter-spacing="0" word-spacing="0" text-anchor="middle" overflow="visible"><tspan x="102.5" y="246.25" font-size="10" stroke="none">D</tspan></text><path fill="#e6e6e6" stroke-linecap="round" stroke-linejoin="round" d="M60 235h15v15H60z"/><text style="line-height:150%;text-align:center;text-decoration-line:none" x="67.5" y="246.25" color="#000" font-size="8" font-family="-apple-system,BlinkMacSystemFont,'Segoe UI',Helvetica,Arial,sans-serif" letter-spacing="0" word-spacing="0" text-anchor="middle" overflow="visible"><tspan x="67.5" y="246.25" font-size="10" stroke="none">D</tspan></text><path fill="#e6e6e6" stroke-linecap="round" stroke-linejoin="round" d="M45 235h15v15H45z"/><text style="line-height:150%;text-align:center;text-decoration-line:none" x="52.5" y="246.25" color="#000" font-size="8" font-family="-apple-system,BlinkMacSystemFont,'Segoe UI',Helvetica,Arial,sans-serif" letter-spacing="0" word-spacing="0" text-anchor="middle" overflow="visible"><tspan x="52.5" y="246.25" font-size="10" stroke="none">D</tspan></text><path fill="#e6e6e6" stroke-linecap="round" stroke-linejoin="round" d="M30 235h15v15H30z"/><text style="line-height:150%;text-align:center;text-decoration-line:none" x="37.5" y="246.25" color="#000" font-size="8" font-family="-apple-system,BlinkMacSystemFont,'Segoe UI',Helvetica,Arial,sans-serif" letter-spacing="0" word-spacing="0" text-anchor="middle" overflow="visible"><tspan x="37.5" y="246.25" font-size="10" stroke="none">D</tspan></text><path fill="#e6e6e6" stroke-linecap="round" stroke-linejoin="round" d="M15 235h15v15H15z"/><text style="line-height:150%;text-align:center;text-decoration-line:none" x="22.5" y="246.25" color="#000" font-size="8" font-family="-apple-system,BlinkMacSystemFont,'Segoe UI',Helvetica,Arial,sans-serif" letter-spacing="0" word-spacing="0" text-anchor="middle" overflow="visible"><tspan x="22.5" y="246.25" font-size="10" stroke="none">D</tspan></text><path d="M200 244.5v-4l-5 2z" stroke-width=".5" stroke-linecap="round" stroke-linejoin="round"/><path d="M180 242.5h-15" fill="none" stroke-linecap="round" stroke-linejoin="round"/><path d="M165 244.5v-4l-5 2z" stroke-width=".5" stroke-linecap="round" stroke-linejoin="round"/><path d="M130 242.5h-15" fill="none" stroke-linecap="round" stroke-linejoin="round"/><path d="M115 244.5v-4l-5 2z" stroke-width=".5" stroke-linecap="round" stroke-linejoin="round"/><path d="M95 242.5H80" fill="none" stroke-linecap="round" stroke-linejoin="round"/><path d="M80 244.5v-4l-5 2z" stroke-width=".5" stroke-linecap="round" stroke-linejoin="round"/><path d="M205 242.5v-10" fill="none" stroke-linecap="round" stroke-linejoin="round"/><text style="line-height:150%;text-align:center;text-decoration-line:none" x="245" y="141.25" color="#000" font-size="8" font-family="-apple-system,BlinkMacSystemFont,'Segoe UI',Helvetica,Arial,sans-serif" letter-spacing="0" word-spacing="0" text-anchor="middle" overflow="visible"><tspan x="245" y="141.25" font-size="10" stroke="none">Mixin[0]</tspan></text><path d="M370 244.5v-4l5 2z" stroke-width=".5" stroke-linecap="round" stroke-linejoin="round"/><text style="line-height:150%;text-align:start;text-decoration-line:none" x="378.75" y="376.25" color="#000" font-size="8" font-family="-apple-system,BlinkMacSystemFont,'Segoe UI',Helvetica,Arial,sans-serif" letter-spacing="0" word-spacing="0" overflow="visible"><tspan x="378.75" y="376.25" style="text-align:start" font-size="10" stroke="none">Out[2]</tspan></text><path d="M215 332.5H85v40m130 0h-15m170 0h-10" fill="none" stroke-linecap="round" stroke-linejoin="round"/><path d="M215 330v15h7.5c4 0 7.5-3.5 7.5-7.5s-3.5-7.5-7.5-7.5z" fill="#f2f2f2" stroke-linecap="round" stroke-linejoin="round"/><g stroke-linecap="round" stroke-linejoin="round"><path d="M213 310c3 4.5 3 10.5 0 15" fill="none"/><path d="M215.5 310c3 4.5 3 10.5 0 15h4.5c2 0 6.667-.833 10-7.5-3.333-6.667-8-7.5-10-7.5z" fill="#f2f2f2"/></g><path d="M170 372.5v-50h44" fill="none" stroke-linecap="round" stroke-linejoin="round"/><path d="M120 372.5v-60h94" fill="none" stroke-linecap="round" stroke-linejoin="round"/><path d="M15 372.5H5v-75h254M245 275v12.5h14" fill="none" stroke-linecap="round" stroke-linejoin="round"/><g stroke-linecap="round" stroke-linejoin="round"><path d="M258 285c3 4.5 3 10.5 0 15" fill="none"/><path d="M260.5 285c3 4.5 3 10.5 0 15h4.5c2 0 6.667-.833 10-7.5-3.333-6.667-8-7.5-10-7.5z" fill="#f2f2f2"/></g><path d="M275 327.5h10l5-12.5h14m-29-22.5h10l5 12.5h14" fill="none" stroke-linecap="round" stroke-linejoin="round"/><g stroke-linecap="round" stroke-linejoin="round"><path d="M303 302.5c3 4.5 3 10.5 0 15" fill="none"/><path d="M305.5 302.5c3 4.5 3 10.5 0 15h4.5c2 0 6.667-.833 10-7.5-3.333-6.667-8-7.5-10-7.5z" fill="#f2f2f2"/></g><path d="M320 310h30v-67.5h-10m-110 95h10l5-5h14m-29-15h10l5 5h14" fill="none" stroke-linecap="round" stroke-linejoin="round"/><g stroke-linecap="round" stroke-linejoin="round"><path d="M258 320c3 4.5 3 10.5 0 15" fill="none"/><path d="M260.5 320c3 4.5 3 10.5 0 15h4.5c2 0 6.667-.833 10-7.5-3.333-6.667-8-7.5-10-7.5z" fill="#f2f2f2"/></g><path d="M200 362.5h10l-5-10z" fill="#f2f2f2" stroke-linecap="round" stroke-linejoin="round"/><path d="M205 349.5v-7h10" fill="none" stroke-linecap="round" stroke-linejoin="round"/><circle r="1.5" cy="-205" cx="-351" transform="matrix(0 -1 -1 0 0 0)" fill="#f2f2f2" stroke-linecap="round" stroke-linejoin="round"/><path d="M340 374.5v-4l-5 2z" stroke-width=".5" stroke-linecap="round" stroke-linejoin="round"/><path fill="#e6e6e6" stroke-linecap="round" stroke-linejoin="round" d="M320 365h15v15h-15z"/><text style="line-height:150%;text-align:center;text-decoration-line:none" x="327.5" y="376.25" color="#000" font-size="8" font-family="-apple-system,BlinkMacSystemFont,'Segoe UI',Helvetica,Arial,sans-serif" letter-spacing="0" word-spacing="0" text-anchor="middle" overflow="visible"><tspan x="327.5" y="376.25" font-size="10" stroke="none">D</tspan></text><path fill="#e6e6e6" stroke-linecap="round" stroke-linejoin="round" d="M305 365h15v15h-15z"/><text style="line-height:150%;text-align:center;text-decoration-line:none" x="312.5" y="376.25" color="#000" font-size="8" font-family="-apple-system,BlinkMacSystemFont,'Segoe UI',Helvetica,Arial,sans-serif" letter-spacing="0" word-spacing="0" text-anchor="middle" overflow="visible"><tspan x="312.5" y="376.25" font-size="10" stroke="none">D</tspan></text><path fill="#e6e6e6" stroke-linecap="round" stroke-linejoin="round" d="M290 365h15v15h-15z"/><text style="line-height:150%;text-align:center;text-decoration-line:none" x="297.5" y="376.25" color="#000" font-size="8" font-family="-apple-system,BlinkMacSystemFont,'Segoe UI',Helvetica,Arial,sans-serif" letter-spacing="0" word-spacing="0" text-anchor="middle" overflow="visible"><tspan x="297.5" y="376.25" font-size="10" stroke="none">D</tspan></text><path fill="#e6e6e6" stroke-linecap="round" stroke-linejoin="round" d="M275 365h15v15h-15z"/><text style="line-height:150%;text-align:center;text-decoration-line:none" x="282.5" y="376.25" color="#000" font-size="8" font-family="-apple-system,BlinkMacSystemFont,'Segoe UI',Helvetica,Arial,sans-serif" letter-spacing="0" word-spacing="0" text-anchor="middle" overflow="visible"><tspan x="282.5" y="376.25" font-size="10" stroke="none">D</tspan></text><path fill="#e6e6e6" stroke-linecap="round" stroke-linejoin="round" d="M260 365h15v15h-15z"/><text style="line-height:150%;text-align:center;text-decoration-line:none" x="267.5" y="376.25" color="#000" font-size="8" font-family="-apple-system,BlinkMacSystemFont,'Segoe UI',Helvetica,Arial,sans-serif" letter-spacing="0" word-spacing="0" text-anchor="middle" overflow="visible"><tspan x="267.5" y="376.25" font-size="10" stroke="none">D</tspan></text><path fill="#e6e6e6" stroke-linecap="round" stroke-linejoin="round" d="M245 365h15v15h-15z"/><text style="line-height:150%;text-align:center;text-decoration-line:none" x="252.5" y="376.25" color="#000" font-size="8" font-family="-apple-system,BlinkMacSystemFont,'Segoe UI',Helvetica,Arial,sans-serif" letter-spacing="0" word-spacing="0" text-anchor="middle" overflow="visible"><tspan x="252.5" y="376.25" font-size="10" stroke="none">D</tspan></text><path fill="#e6e6e6" stroke-linecap="round" stroke-linejoin="round" d="M230 365h15v15h-15z"/><text style="line-height:150%;text-align:center;text-decoration-line:none" x="237.5" y="376.25" color="#000" font-size="8" font-family="-apple-system,BlinkMacSystemFont,'Segoe UI',Helvetica,Arial,sans-serif" letter-spacing="0" word-spacing="0" text-anchor="middle" overflow="visible"><tspan x="237.5" y="376.25" font-size="10" stroke="none">D</tspan></text><path fill="#e6e6e6" stroke-linecap="round" stroke-linejoin="round" d="M215 365h15v15h-15z"/><text style="line-height:150%;text-align:center;text-decoration-line:none" x="222.5" y="376.25" color="#000" font-size="8" font-family="-apple-system,BlinkMacSystemFont,'Segoe UI',Helvetica,Arial,sans-serif" letter-spacing="0" word-spacing="0" text-anchor="middle" overflow="visible"><tspan x="222.5" y="376.25" font-size="10" stroke="none">D</tspan></text><path fill="#e6e6e6" stroke-linecap="round" stroke-linejoin="round" d="M180 365h15v15h-15z"/><text style="line-height:150%;text-align:center;text-decoration-line:none" x="187.5" y="376.25" color="#000" font-size="8" font-family="-apple-system,BlinkMacSystemFont,'Segoe UI',Helvetica,Arial,sans-serif" letter-spacing="0" word-spacing="0" text-anchor="middle" overflow="visible"><tspan x="187.5" y="376.25" font-size="10" stroke="none">D</tspan></text><path fill="#e6e6e6" stroke-linecap="round" stroke-linejoin="round" d="M145 365h15v15h-15z"/><text style="line-height:150%;text-align:center;text-decoration-line:none" x="152.5" y="376.25" color="#000" font-size="8" font-family="-apple-system,BlinkMacSystemFont,'Segoe UI',Helvetica,Arial,sans-serif" letter-spacing="0" word-spacing="0" text-anchor="middle" overflow="visible"><tspan x="152.5" y="376.25" font-size="10" stroke="none">D</tspan></text><path fill="#e6e6e6" stroke-linecap="round" stroke-linejoin="round" d="M130 365h15v15h-15z"/><text style="line-height:150%;text-align:center;text-decoration-line:none" x="137.5" y="376.25" color="#000" font-size="8" font-family="-apple-system,BlinkMacSystemFont,'Segoe UI',Helvetica,Arial,sans-serif" letter-spacing="0" word-spacing="0" text-anchor="middle" overflow="visible"><tspan x="137.5" y="376.25" font-size="10" stroke="none">D</tspan></text><path fill="#e6e6e6" stroke-linecap="round" stroke-linejoin="round" d="M95 365h15v15H95z"/><text style="line-height:150%;text-align:center;text-decoration-line:none" x="102.5" y="376.25" color="#000" font-size="8" font-family="-apple-system,BlinkMacSystemFont,'Segoe UI',Helvetica,Arial,sans-serif" letter-spacing="0" word-spacing="0" text-anchor="middle" overflow="visible"><tspan x="102.5" y="376.25" font-size="10" stroke="none">D</tspan></text><path fill="#e6e6e6" stroke-linecap="round" stroke-linejoin="round" d="M60 365h15v15H60z"/><text style="line-height:150%;text-align:center;text-decoration-line:none" x="67.5" y="376.25" color="#000" font-size="8" font-family="-apple-system,BlinkMacSystemFont,'Segoe UI',Helvetica,Arial,sans-serif" letter-spacing="0" word-spacing="0" text-anchor="middle" overflow="visible"><tspan x="67.5" y="376.25" font-size="10" stroke="none">D</tspan></text><path fill="#e6e6e6" stroke-linecap="round" stroke-linejoin="round" d="M45 365h15v15H45z"/><text style="line-height:150%;text-align:center;text-decoration-line:none" x="52.5" y="376.25" color="#000" font-size="8" font-family="-apple-system,BlinkMacSystemFont,'Segoe UI',Helvetica,Arial,sans-serif" letter-spacing="0" word-spacing="0" text-anchor="middle" overflow="visible"><tspan x="52.5" y="376.25" font-size="10" stroke="none">D</tspan></text><path fill="#e6e6e6" stroke-linecap="round" stroke-linejoin="round" d="M30 365h15v15H30z"/><text style="line-height:150%;text-align:center;text-decoration-line:none" x="37.5" y="376.25" color="#000" font-size="8" font-family="-apple-system,BlinkMacSystemFont,'Segoe UI',Helvetica,Arial,sans-serif" letter-spacing="0" word-spacing="0" text-anchor="middle" overflow="visible"><tspan x="37.5" y="376.25" font-size="10" stroke="none">D</tspan></text><path fill="#e6e6e6" stroke-linecap="round" stroke-linejoin="round" d="M15 365h15v15H15z"/><text style="line-height:150%;text-align:center;text-decoration-line:none" x="22.5" y="376.25" color="#000" font-size="8" font-family="-apple-system,BlinkMacSystemFont,'Segoe UI',Helvetica,Arial,sans-serif" letter-spacing="0" word-spacing="0" text-anchor="middle" overflow="visible"><tspan x="22.5" y="376.25" font-size="10" stroke="none">D</tspan></text><path d="M200 374.5v-4l-5 2z" stroke-width=".5" stroke-linecap="round" stroke-linejoin="round"/><path d="M180 372.5h-15" fill="none" stroke-linecap="round" stroke-linejoin="round"/><path d="M165 374.5v-4l-5 2z" stroke-width=".5" stroke-linecap="round" stroke-linejoin="round"/><path d="M130 372.5h-15" fill="none" stroke-linecap="round" stroke-linejoin="round"/><path d="M115 374.5v-4l-5 2z" stroke-width=".5" stroke-linecap="round" stroke-linejoin="round"/><path d="M95 372.5H80" fill="none" stroke-linecap="round" stroke-linejoin="round"/><path d="M80 374.5v-4l-5 2z" stroke-width=".5" stroke-linecap="round" stroke-linejoin="round"/><path d="M205 372.5v-10" fill="none" stroke-linecap="round" stroke-linejoin="round"/><text style="line-height:150%;text-align:center;text-decoration-line:none" x="245" y="271.25" color="#000" font-size="8" font-family="-apple-system,BlinkMacSystemFont,'Segoe UI',Helvetica,Arial,sans-serif" letter-spacing="0" word-spacing="0" text-anchor="middle" overflow="visible"><tspan x="245" y="271.25" font-size="10" stroke="none">Mixin[1]</tspan></text><path d="M370 374.5v-4l5 2z" stroke-width=".5" stroke-linecap="round" stroke-linejoin="round"/></g></svg>